<svg id="b34941f2-e459-48f4-a874-9fbc68614e08" data-name="Layer 1" xmlns="http://www.w3.org/2000/svg" viewBox="0 0 512 512"><defs><style>.bc088e15-7b60-41c0-a0b8-b866c0037bd1{fill:#fff;}</style></defs><path class="bc088e15-7b60-41c0-a0b8-b866c0037bd1" d="M256,0C114.62,0,0,114.62,0,256S114.62,512,256,512,512,397.38,512,256,397.38,0,256,0Zm96.14,387.6a302.61,302.61,0,0,1-36.22,7.8,310.32,310.32,0,0,1-48.73,3.4q-34.4,0-58.89-8t-40.39-25.4Q152,348,144.72,321t-7.3-65q0-38.4,7.3-65.6T167.91,146q15.9-17.19,40.91-25t61-7.8a339.45,339.45,0,0,1,37.78,2.2q19.55,2.2,30.49,5.8,6.26,2,8.6,5.2a13.93,13.93,0,0,1,2.35,8.4v18.8q-15.13-1.59-33.62-3t-38.3-1.4q-23.46,0-39.61,5t-26.06,17q-9.92,12-14.07,32.2T193.19,254q0,33.6,5.21,54.8t15.37,33a51.7,51.7,0,0,0,25.8,16.2q15.63,4.41,37,4.4a313,313,0,0,0,38.05-2,217.57,217.57,0,0,1,24.49-2q13,0,13,9.6Z"/></svg>